<svg id="Layer_1" data-name="Layer 1" xmlns="http://www.w3.org/2000/svg" viewBox="0 0 177.17 45.04"><defs><style>.cls-1{fill:#2c344d;}.cls-2{fill:#325378;}.cls-3{fill:#186690;}.cls-4{fill:#377aaf;}.cls-5{fill:#1aa9dc;}</style></defs><rect class="cls-1" x="164.86" y="2.25" width="10.71" height="10.78"/><rect class="cls-1" x="164.86" y="16.99" width="10.71" height="10.78"/><rect class="cls-1" x="164.86" y="31.74" width="10.71" height="10.78"/><rect class="cls-2" x="152.75" y="2.61" width="9.91" height="9.98"/><rect class="cls-2" x="152.75" y="17.4" width="9.91" height="9.98"/><rect class="cls-2" x="152.75" y="32.14" width="9.91" height="9.98"/><rect class="cls-3" x="141.13" y="2.91" width="9.37" height="9.44"/><rect class="cls-3" x="141.13" y="17.67" width="9.37" height="9.44"/><rect class="cls-3" x="141.13" y="32.41" width="9.37" height="9.44"/><rect class="cls-4" x="130.39" y="3.39" width="8.45" height="8.5"/><rect class="cls-4" x="130.39" y="18.13" width="8.45" height="8.51"/><rect class="cls-4" x="130.39" y="32.88" width="8.45" height="8.51"/><rect class="cls-5" x="120.48" y="3.64" width="7.81" height="7.87"/><rect class="cls-5" x="120.48" y="18.45" width="7.81" height="7.87"/><rect class="cls-5" x="120.48" y="33.2" width="7.81" height="7.87"/><path class="cls-1" d="M13.83,12.33H11.55V6.69C11.55,6,11,5.62,10,5.62l-.69,0-.73.09v4q0,3-3.64,2.5V10.39q1.41.36,1.41-.69V4.19A24.27,24.27,0,0,1,10,3.73q3.8,0,3.8,3Z"/><path class="cls-1" d="M22.88,8.88q0,3.46-3.79,3.47t-3.74-3.5V4.17c.84-.16,1.59-.27,2.24-.35a13.5,13.5,0,0,1,1.69-.09q3.6,0,3.6,3.3ZM19.25,5.6a4.62,4.62,0,0,0-1.64.19v3c0,1.09.51,1.64,1.53,1.64s1.47-.53,1.47-1.57V7.05C20.59,6.08,20.14,5.6,19.25,5.6Z"/><path class="cls-1" d="M31.69,5.86h-1.1v6.47H28.31V5.86H24.4v-2h7.29Z"/><path class="cls-1" d="M37.43,12.33H33.21V10.45h2V6.31c0-.47-.19-.71-.58-.71a3.47,3.47,0,0,0-.84.14V3.92A3.28,3.28,0,0,1,35,3.73c1.61,0,2.43.87,2.45,2.6Z"/><path class="cls-1" d="M45.79,12.33H43.51V6.88C43.51,6,43,5.6,41.89,5.6A15.15,15.15,0,0,0,39,5.91V4.09a15,15,0,0,1,3-.36q3.86,0,3.85,3.13Zm-4.56,0H39V7.84h2.28Z"/><path class="cls-1" d="M53.91,5l-.68,4.76a3.1,3.1,0,0,1-3.47,2.78,7.37,7.37,0,0,1-2-.23v-2a11.6,11.6,0,0,0,2,.16A1.09,1.09,0,0,0,51,9.61l.67-4H47V2.05h2.26v1.8h4.68Z"/><path class="cls-1" d="M65.67,12.33H63.39V6.88c0-.85-.54-1.28-1.63-1.28a15.13,15.13,0,0,0-2.93.31V4.09a15,15,0,0,1,3-.36c2.56,0,3.85,1,3.85,3.13Zm-4.56,0H58.83V7.84h2.28Z"/><path class="cls-1" d="M74.73,8.54c0,2.52-1.31,3.78-3.92,3.79-.43,0-1,0-1.56-.08S68,12.11,67.18,12V3.85h2.28v6.41a4.91,4.91,0,0,0,1.39.19A1.59,1.59,0,0,0,72.06,10a2.21,2.21,0,0,0,.39-1.44V6.76c0-.77-.2-1.16-.6-1.16a4.19,4.19,0,0,0-1.27.27V4.07a4.68,4.68,0,0,1,1.77-.34c1.59,0,2.38,1,2.38,3.08Z"/><path class="cls-1" d="M83.22,5l-.67,4.76a3.12,3.12,0,0,1-3.48,2.78,7.42,7.42,0,0,1-2-.23v-2a11.69,11.69,0,0,0,2,.16,1.08,1.08,0,0,0,1.23-.84l.68-4H76.29V2.05h2.26v1.8h4.67Z"/><path class="cls-1" d="M87.19,12.33H84.91V3.85h2.28Z"/><path class="cls-1" d="M96.21,5.74l-.73,4c-.29,1.73-1.13,2.6-2.51,2.6h-.38l-.33,0v-1.9h.2c.37,0,.63-.2.76-.66L94,5.6h-5.1V3.85h7.33Zm-5,8.5H88.88V7.05h2.28Z"/><path class="cls-1" d="M102.74,7c0-.94-.48-1.4-1.45-1.38a4.16,4.16,0,0,0-1.3.15v.92c0,.4.12.6.35.6s.7,0,1.07,0V9.09l-.57.05h-.55c-1.7,0-2.55-.82-2.56-2.46V4.1c.78-.12,1.47-.21,2.07-.28s1.09-.09,1.49-.09q3.73,0,3.73,3.18V9.14q0,3.19-3.83,3.19A16.63,16.63,0,0,1,97.73,12V10a15.45,15.45,0,0,0,1.87.33,12.29,12.29,0,0,0,1.55.08q1.59,0,1.59-1.35Z"/><path class="cls-1" d="M113.41,12.33h-2.28V6.88c0-.85-.54-1.28-1.62-1.28a15,15,0,0,0-2.93.31V4.09a15,15,0,0,1,3-.36q3.85,0,3.85,3.13Zm-4.56,0h-2.27V7.84h2.27Z"/><path class="cls-1" d="M5,27.58V19.47c.9-.16,1.66-.28,2.27-.37A12.16,12.16,0,0,1,8.69,19a4.57,4.57,0,0,1,2.92.78,3,3,0,0,1,1,2.38v5.44Zm5.36-1.89V22.14c0-.86-.56-1.29-1.67-1.29A5.34,5.34,0,0,0,7.22,21v4.66Z"/><path class="cls-1" d="M17.68,23.29H15.4V19.1h2.28Z"/><path class="cls-1" d="M28,27.58h-7.5V25.69h4.41V22.46a1.62,1.62,0,0,0-.42-1.2,1.71,1.71,0,0,0-1.25-.41,16.44,16.44,0,0,0-2.74.3v-1.8c.55-.12,1.06-.22,1.52-.28A9.62,9.62,0,0,1,23.21,19c2.61,0,3.92,1.16,3.92,3.5v3.21H28Z"/><path class="cls-1" d="M33,25v.65a1.3,1.3,0,0,0,.34.08l.56.05.68,0,.7,0a4.19,4.19,0,0,0,1-.13,2.75,2.75,0,0,0,.85-.38,1.91,1.91,0,0,0,.57-.63A1.78,1.78,0,0,0,38,23.8V19.1h2.28v4.72a3.65,3.65,0,0,1-.36,1.68,3.35,3.35,0,0,1-1,1.2,4.2,4.2,0,0,1-1.55.73,7.5,7.5,0,0,1-2,.25l-1,0-1.14-.06-1.23-.11c-.41,0-.81-.08-1.2-.14V19.1H33v4.48a1,1,0,0,0,.44-.12,1.28,1.28,0,0,0,.44-.34,1.87,1.87,0,0,0,.34-.59,2.31,2.31,0,0,0,.13-.82V19.1h2.28v2.63a3.3,3.3,0,0,1-.28,1.42,2.73,2.73,0,0,1-.76,1,3.3,3.3,0,0,1-1.14.62A4.84,4.84,0,0,1,33,25Z"/><path class="cls-1" d="M50.48,27.58H48.2V22.14c0-.86-.56-1.29-1.67-1.29a3.14,3.14,0,0,0-.57,0l-.83.13v6.55H42.85V19.47A19.77,19.77,0,0,1,46.6,19a4.55,4.55,0,0,1,2.91.78,2.92,2.92,0,0,1,1,2.38Z"/><path class="cls-1" d="M60.73,27.58H56.81V25.69h1.64V22.33c0-1-.48-1.48-1.42-1.48s-1.29.5-1.37,1.51v5.22H53.4V21.07a5,5,0,0,0-.27-2h2.26a2.3,2.3,0,0,1,.27,1.17A2.41,2.41,0,0,1,57.91,19q2.82,0,2.82,3.31Z"/><path class="cls-1" d="M65.78,27.58H63.5V19.1h2.28Z"/><path class="cls-1" d="M80.66,20.2,80,25q-.47,2.77-3.48,2.77a7.38,7.38,0,0,1-2-.22v-2a11.54,11.54,0,0,0,2,.15,1.09,1.09,0,0,0,1.24-.83l.67-4H73.72V17.29H76V19.1h4.68Z"/><path class="cls-1" d="M90.87,27.58H87V25.69h1.63V22.33c0-1-.48-1.48-1.41-1.48s-1.29.5-1.37,1.51v5.22H83.54V21.07a5,5,0,0,0-.27-2h2.27a2.3,2.3,0,0,1,.27,1.17A2.38,2.38,0,0,1,88.05,19q2.82,0,2.82,3.31Z"/><path class="cls-1" d="M95.92,25v.65a1.3,1.3,0,0,0,.34.08l.56.05.68,0,.7,0a4.19,4.19,0,0,0,1-.13,2.86,2.86,0,0,0,.85-.38,1.91,1.91,0,0,0,.57-.63,1.78,1.78,0,0,0,.21-.89V19.1h2.28v4.72a3.65,3.65,0,0,1-.36,1.68,3.45,3.45,0,0,1-1,1.2,4.2,4.2,0,0,1-1.55.73,7.52,7.52,0,0,1-2,.25l-1,0-1.14-.06-1.22-.11c-.42,0-.82-.08-1.2-.14V19.1h2.28v4.48a1,1,0,0,0,.44-.12,1.38,1.38,0,0,0,.44-.34,2.08,2.08,0,0,0,.34-.59,2.31,2.31,0,0,0,.13-.82V19.1h2.28v2.63a3.3,3.3,0,0,1-.28,1.42,2.84,2.84,0,0,1-.76,1,3.26,3.26,0,0,1-1.15.62A4.73,4.73,0,0,1,95.92,25Z"/><path class="cls-1" d="M113.38,27.58H111.1V22.14c0-.86-.56-1.29-1.67-1.29a3.32,3.32,0,0,0-.58,0L108,21v6.55h-2.28V19.47A19.77,19.77,0,0,1,109.5,19a4.55,4.55,0,0,1,2.91.78,3,3,0,0,1,1,2.38Z"/><path class="cls-1" d="M6.31,37.48H4.82V34.74H6.31Z"/><path class="cls-1" d="M12.81,40.28H7.91V39.05h2.88V36.94a1.1,1.1,0,0,0-.27-.79,1.11,1.11,0,0,0-.82-.27,10.88,10.88,0,0,0-1.79.2V34.9c.36-.08.69-.14,1-.18a6.17,6.17,0,0,1,.8-.06c1.71,0,2.56.76,2.56,2.29v2.1h.54Z"/><path class="cls-1" d="M18.11,40.28H16.62V36.72c0-.56-.35-.84-1.06-.84a10.78,10.78,0,0,0-1.92.2V34.89a10.37,10.37,0,0,1,2-.23c1.67,0,2.51.68,2.51,2Z"/><path class="cls-1" d="M24.56,37.81A2.23,2.23,0,0,1,22,40.28a9.87,9.87,0,0,1-1-.05c-.4,0-.85-.09-1.36-.17V34.74h1.49v4.19a3.18,3.18,0,0,0,.91.12,1,1,0,0,0,.79-.32,1.43,1.43,0,0,0,.26-.94V36.64c0-.51-.13-.76-.4-.76a2.76,2.76,0,0,0-.83.18V34.88A3.1,3.1,0,0,1,23,34.66q1.56,0,1.56,2Z"/><path class="cls-1" d="M27.67,37.48H26.18V34.74h1.49Z"/><path class="cls-1" d="M30.87,40.28H29.38V34.74h1.49Z"/><path class="cls-1" d="M40.74,40.28H39.25V36.72c0-.56-.35-.84-1.06-.84a10.78,10.78,0,0,0-1.92.2V34.89a10.37,10.37,0,0,1,1.95-.23q2.52,0,2.52,2Zm-3,0H36.27V37.35h1.49Z"/><path class="cls-1" d="M45,40.28H42.23V39.05h1.28v-2.7c0-.31-.12-.47-.37-.47a2.21,2.21,0,0,0-.56.09V34.78a2.31,2.31,0,0,1,.81-.12c1,0,1.58.57,1.6,1.7Z"/><path class="cls-1" d="M51,40.28H49.46V36.72c0-.56-.35-.84-1.06-.84a10.78,10.78,0,0,0-1.92.2V34.89a10.37,10.37,0,0,1,2-.23q2.52,0,2.52,2Z"/><path class="cls-1" d="M55.53,37.23a9.81,9.81,0,0,0,.23-2.49h1.49a12.11,12.11,0,0,1-.07,1.45,5.62,5.62,0,0,1-.21,1,2.28,2.28,0,0,1-.82,1.15l1.17,1.91H55.7l-1.49-2.5a9.6,9.6,0,0,0-.29,2.5H52.47c0-.6,0-1.12.08-1.56a6.42,6.42,0,0,1,.21-1.12,2.87,2.87,0,0,1,.65-1.23l-.95-1.63H54Z"/><path class="cls-1" d="M60.41,40.28H58.92V34.74h1.49Z"/><path class="cls-1" d="M67.41,40.28H65.92V34.74h1.49Z"/><path class="cls-1" d="M73.48,40.28H72V36.72c0-.56-.35-.84-1.06-.84a10.78,10.78,0,0,0-1.92.2V34.89A10.37,10.37,0,0,1,71,34.66q2.52,0,2.52,2Z"/><path class="cls-1" d="M79.76,36.05H79v4.23H77.55V36.05H75V34.74h4.77Z"/><path class="cls-1" d="M84,40.28H81.25V39.05h1.28v-2.7c0-.31-.13-.47-.38-.47a2.21,2.21,0,0,0-.55.09V34.78a2.31,2.31,0,0,1,.81-.12c1,0,1.58.57,1.6,1.7Z"/><path class="cls-1" d="M88.57,37.23a10.41,10.41,0,0,0,.23-2.49h1.49a12.11,12.11,0,0,1-.07,1.45,4.84,4.84,0,0,1-.22,1,2.22,2.22,0,0,1-.81,1.15l1.17,1.91H88.73l-1.49-2.5a10.49,10.49,0,0,0-.28,2.5H85.51c0-.6,0-1.12.08-1.56a5,5,0,0,1,.21-1.12,2.87,2.87,0,0,1,.65-1.23l-1-1.63h1.56Z"/><path class="cls-1" d="M97.24,38.59V39a.8.8,0,0,0,.22,0l.37,0,.45,0h.45a2.86,2.86,0,0,0,.67-.08,1.74,1.74,0,0,0,.55-.25,1.27,1.27,0,0,0,.38-.42,1.15,1.15,0,0,0,.14-.57V34.74H102v3.09a2.38,2.38,0,0,1-.24,1.1,2.26,2.26,0,0,1-.66.78,3.05,3.05,0,0,1-1,.48,5,5,0,0,1-1.33.16c-.19,0-.4,0-.64,0l-.74,0-.8-.07c-.28,0-.54,0-.79-.09V34.74h1.49v2.93a.55.55,0,0,0,.29-.08,1,1,0,0,0,.29-.22A1.21,1.21,0,0,0,98,37a1.44,1.44,0,0,0,.09-.53V34.74h1.49v1.72a2.06,2.06,0,0,1-.19.93,1.9,1.9,0,0,1-.49.66,2.26,2.26,0,0,1-.75.41A3.21,3.21,0,0,1,97.24,38.59Z"/><path class="cls-1" d="M104.58,36.32a.77.77,0,0,1-.67.25,1,1,0,0,1-.24,0,.66.66,0,0,0,.09-.19,1.8,1.8,0,0,0,0-.22V34.79a.24.24,0,0,1,0-.14.28.28,0,0,1,.14-.1l.16,0,.16,0a.94.94,0,0,1,.31.06.26.26,0,0,1,.17.25v.82A1.11,1.11,0,0,1,104.58,36.32Zm1.45,0a.79.79,0,0,1-.67.25,1.07,1.07,0,0,1-.25,0,.37.37,0,0,0,.09-.19.86.86,0,0,0,0-.22V34.79a.2.2,0,0,1,.06-.14.31.31,0,0,1,.13-.1l.17,0,.15,0a1,1,0,0,1,.32.06.26.26,0,0,1,.17.25v.82A1.18,1.18,0,0,1,106,36.32Z"/><path class="cls-1" d="M111.34,39.05c.53,0,.79-.27.79-.71v-3.6h1.49v3.62c0,1.33-.87,2-2.62,2a14.76,14.76,0,0,1-2.14-.17v-1.3a5.12,5.12,0,0,0,.57.11l.44.07-.69-4.32h1.51Z"/></svg>